<mxfile host="65bd71144e">
    <diagram id="zF33TE6D5cPjfDigW370" name="Page-1">
        <mxGraphModel dx="1761" dy="921" grid="1" gridSize="10" guides="1" tooltips="1" connect="1" arrows="1" fold="1" page="1" pageScale="1" pageWidth="850" pageHeight="1100" math="0" shadow="0">
            <root>
                <mxCell id="0"/>
                <mxCell id="1" parent="0"/>
                <mxCell id="3" style="edgeStyle=none;html=1;fontSize=15;" parent="1" source="2" edge="1">
                    <mxGeometry relative="1" as="geometry">
                        <mxPoint x="435" y="110" as="targetPoint"/>
                    </mxGeometry>
                </mxCell>
                <mxCell id="2" value="Start" style="rounded=1;whiteSpace=wrap;html=1;fontSize=15;" parent="1" vertex="1">
                    <mxGeometry x="380" y="10" width="110" height="60" as="geometry"/>
                </mxCell>
                <mxCell id="5" style="edgeStyle=none;html=1;fontSize=15;" parent="1" source="4" edge="1">
                    <mxGeometry relative="1" as="geometry">
                        <mxPoint x="435" y="210" as="targetPoint"/>
                    </mxGeometry>
                </mxCell>
                <mxCell id="4" value="num, suma" style="shape=parallelogram;perimeter=parallelogramPerimeter;whiteSpace=wrap;html=1;fixedSize=1;fontSize=15;" parent="1" vertex="1">
                    <mxGeometry x="355" y="110" width="160" height="60" as="geometry"/>
                </mxCell>
                <mxCell id="7" style="edgeStyle=none;html=1;exitX=0.5;exitY=0.852;exitDx=0;exitDy=0;exitPerimeter=0;entryX=0.496;entryY=0.195;entryDx=0;entryDy=0;entryPerimeter=0;fontSize=15;" parent="1" source="6" target="11" edge="1">
                    <mxGeometry relative="1" as="geometry">
                        <mxPoint x="432.5" y="330" as="targetPoint"/>
                    </mxGeometry>
                </mxCell>
                <mxCell id="6" value="&quot;Ingrese hasta que numero desea realizar la secuencia&quot;" style="shape=document;whiteSpace=wrap;html=1;boundedLbl=1;fontSize=15;" parent="1" vertex="1">
                    <mxGeometry x="350" y="200" width="165" height="110" as="geometry"/>
                </mxCell>
                <mxCell id="13" value="" style="edgeStyle=none;html=1;fontSize=15;" parent="1" source="11" target="12" edge="1">
                    <mxGeometry relative="1" as="geometry"/>
                </mxCell>
                <mxCell id="11" value="&lt;div&gt;&lt;br&gt;&lt;/div&gt;&lt;div&gt;input num&lt;/div&gt;" style="shape=manualInput;whiteSpace=wrap;html=1;fontSize=15;" parent="1" vertex="1">
                    <mxGeometry x="370" y="320" width="125" height="80" as="geometry"/>
                </mxCell>
                <mxCell id="16" style="edgeStyle=none;html=1;entryX=0.486;entryY=-0.002;entryDx=0;entryDy=0;entryPerimeter=0;fontSize=15;" parent="1" source="12" target="14" edge="1">
                    <mxGeometry relative="1" as="geometry"/>
                </mxCell>
                <mxCell id="12" value="suma = 0" style="whiteSpace=wrap;html=1;fontSize=15;" parent="1" vertex="1">
                    <mxGeometry x="372.5" y="450" width="120" height="60" as="geometry"/>
                </mxCell>
                <mxCell id="18" value="" style="edgeStyle=none;html=1;fontSize=15;" parent="1" source="14" target="17" edge="1">
                    <mxGeometry relative="1" as="geometry"/>
                </mxCell>
                <mxCell id="32" style="edgeStyle=none;html=1;fontSize=15;" parent="1" source="14" edge="1">
                    <mxGeometry relative="1" as="geometry">
                        <mxPoint x="720" y="670" as="targetPoint"/>
                        <Array as="points">
                            <mxPoint x="720" y="590"/>
                        </Array>
                    </mxGeometry>
                </mxCell>
                <mxCell id="14" value="for(int i = 1; i &amp;lt;= num; i++)" style="shape=hexagon;perimeter=hexagonPerimeter2;whiteSpace=wrap;html=1;fixedSize=1;fontSize=15;" parent="1" vertex="1">
                    <mxGeometry x="310" y="560" width="250" height="60" as="geometry"/>
                </mxCell>
                <mxCell id="22" value="" style="edgeStyle=none;html=1;exitX=1;exitY=0.5;exitDx=0;exitDy=0;entryX=0.583;entryY=-0.027;entryDx=0;entryDy=0;entryPerimeter=0;fontSize=15;" parent="1" source="17" target="21" edge="1">
                    <mxGeometry relative="1" as="geometry">
                        <Array as="points">
                            <mxPoint x="560" y="710"/>
                        </Array>
                    </mxGeometry>
                </mxCell>
                <mxCell id="25" style="edgeStyle=none;html=1;entryX=0.5;entryY=0;entryDx=0;entryDy=0;fontSize=15;" parent="1" source="17" target="24" edge="1">
                    <mxGeometry relative="1" as="geometry">
                        <Array as="points">
                            <mxPoint x="320" y="710"/>
                        </Array>
                    </mxGeometry>
                </mxCell>
                <mxCell id="17" value="i % 2 == 0" style="rhombus;whiteSpace=wrap;html=1;fontSize=15;" parent="1" vertex="1">
                    <mxGeometry x="380" y="670" width="110" height="80" as="geometry"/>
                </mxCell>
                <mxCell id="27" style="edgeStyle=none;html=1;exitX=0.583;exitY=1.025;exitDx=0;exitDy=0;exitPerimeter=0;fontSize=15;" parent="1" source="21" edge="1">
                    <mxGeometry relative="1" as="geometry">
                        <mxPoint x="440" y="920" as="targetPoint"/>
                        <Array as="points">
                            <mxPoint x="560" y="920"/>
                        </Array>
                    </mxGeometry>
                </mxCell>
                <mxCell id="21" value="suma = suma - i;" style="whiteSpace=wrap;html=1;fontSize=15;" parent="1" vertex="1">
                    <mxGeometry x="490" y="770" width="120" height="60" as="geometry"/>
                </mxCell>
                <mxCell id="26" style="edgeStyle=none;html=1;fontSize=15;" parent="1" source="24" edge="1">
                    <mxGeometry relative="1" as="geometry">
                        <mxPoint x="440" y="920" as="targetPoint"/>
                        <Array as="points">
                            <mxPoint x="320" y="920"/>
                        </Array>
                    </mxGeometry>
                </mxCell>
                <mxCell id="24" value="suma = suma + 1;" style="whiteSpace=wrap;html=1;fontSize=15;" parent="1" vertex="1">
                    <mxGeometry x="260" y="770" width="120" height="60" as="geometry"/>
                </mxCell>
                <mxCell id="31" style="edgeStyle=none;html=1;entryX=0;entryY=0.5;entryDx=0;entryDy=0;fontSize=15;" parent="1" source="29" target="14" edge="1">
                    <mxGeometry relative="1" as="geometry">
                        <Array as="points">
                            <mxPoint x="180" y="1010"/>
                            <mxPoint x="180" y="590"/>
                        </Array>
                    </mxGeometry>
                </mxCell>
                <mxCell id="29" value="Next Iteration" style="ellipse;whiteSpace=wrap;html=1;fontSize=15;" parent="1" vertex="1">
                    <mxGeometry x="380" y="970" width="120" height="80" as="geometry"/>
                </mxCell>
                <mxCell id="30" value="" style="edgeStyle=none;orthogonalLoop=1;jettySize=auto;html=1;entryX=0.5;entryY=0;entryDx=0;entryDy=0;fontSize=15;" parent="1" target="29" edge="1">
                    <mxGeometry width="100" relative="1" as="geometry">
                        <mxPoint x="440" y="920" as="sourcePoint"/>
                        <mxPoint x="570" y="970" as="targetPoint"/>
                        <Array as="points"/>
                    </mxGeometry>
                </mxCell>
                <mxCell id="35" style="edgeStyle=none;html=1;entryX=0.5;entryY=0;entryDx=0;entryDy=0;exitX=0.5;exitY=0.828;exitDx=0;exitDy=0;exitPerimeter=0;fontSize=15;" parent="1" source="33" target="34" edge="1">
                    <mxGeometry relative="1" as="geometry"/>
                </mxCell>
                <mxCell id="33" value="&quot;La suma de la secuencia total es: &quot; + suma" style="shape=document;whiteSpace=wrap;html=1;boundedLbl=1;fontSize=15;" parent="1" vertex="1">
                    <mxGeometry x="640" y="660" width="160" height="100" as="geometry"/>
                </mxCell>
                <mxCell id="34" value="End" style="rounded=1;whiteSpace=wrap;html=1;fontSize=15;" parent="1" vertex="1">
                    <mxGeometry x="665" y="800" width="110" height="60" as="geometry"/>
                </mxCell>
                <mxCell id="36" value="El bucle for concluira cuando se llegue al numero ingresado en num, sin embargo dentro del for se realizara una condicion donde si los numeros dividos en 2 tienen un resto = 0 es decir pares se restaran en la suma acumulativa de la secuencia, pero si el numero es impar se sumara en la suma acumulativa de la secuencia, dando asi un resultado total," style="whiteSpace=wrap;html=1;fontSize=15;" vertex="1" parent="1">
                    <mxGeometry x="680" y="200" width="240" height="270" as="geometry"/>
                </mxCell>
            </root>
        </mxGraphModel>
    </diagram>
</mxfile>